<svg width="205" height="100" viewBox="0 0 205 100" fill="none" xmlns="http://www.w3.org/2000/svg">
<path d="M25.8145 55H22.4395L33.1094 29.8633H36.7129L47.4355 55H43.832L40.5801 47.0898H32.2656L33.1621 44.4531H39.4902L34.7969 33.0625L25.8145 55Z" fill="#E02020"/>
<path d="M59.6523 55V29.8633H70.375C75.1562 29.8633 77.5469 31.8145 77.5469 35.7168C77.5469 38.5762 75.9883 40.6211 72.8711 41.8516C76.1992 42.4727 77.8633 44.377 77.8633 47.5645C77.8633 52.5215 75.2441 55 70.0059 55H59.6523ZM69.8125 52.3633C72.8125 52.3633 74.3125 50.8398 74.3125 47.793C74.3125 44.8281 72.3027 43.3457 68.2832 43.3457H66.877V41.2188C71.6816 40.5742 74.084 38.8398 74.084 36.0156C74.084 33.6719 72.748 32.5 70.0762 32.5H62.9043V52.3633H69.8125Z" fill="#2FA4AA"/>
<path d="M94.3691 42.3613C94.3691 49.1465 97.4336 52.5391 103.562 52.5391C109.562 52.5391 112.562 49.1465 112.562 42.3613C112.562 35.6699 109.562 32.3242 103.562 32.3242C97.4336 32.3242 94.3691 35.6699 94.3691 42.3613ZM90.9414 42.4668C90.9414 33.9473 95.1484 29.6875 103.562 29.6875C111.848 29.6875 115.99 33.9473 115.99 42.4668C115.99 50.9395 111.848 55.1758 103.562 55.1758C95.1484 55.1758 90.9414 50.9395 90.9414 42.4668Z" fill="#FFA552"/>
<path d="M139.035 52.3633C145.188 52.3633 148.264 48.8242 148.264 41.7461C148.264 35.582 145.188 32.5 139.035 32.5H133.146V52.3633H139.035ZM129.895 55V29.8633H139.035C147.355 29.8633 151.516 33.8242 151.516 41.7461C151.516 50.582 147.355 55 139.035 55H129.895Z" fill="#764EC5"/>
<path d="M181.486 29.8633V32.5H168.303V40.9375H180.871V43.5742H168.303V52.3633H181.75V55H165.051V29.8633H181.486Z" fill="#80D261"/>
<path d="M9.91309 81V73.3193H11.1753L13.9951 79.7271L16.7612 73.3193H17.9697V81H17.0835V74.6997L14.355 81H13.5708L10.7993 74.6997V81H9.91309ZM20.4136 78.1587C20.4136 79.5158 20.9775 80.1943 22.1055 80.1943C23.2334 80.1943 23.7974 79.5158 23.7974 78.1587C23.7974 76.8302 23.2334 76.166 22.1055 76.166C20.9775 76.166 20.4136 76.8302 20.4136 78.1587ZM19.4199 78.1802C19.4199 76.3003 20.3151 75.3604 22.1055 75.3604C23.8958 75.3604 24.791 76.3003 24.791 78.1802C24.791 80.0565 23.8958 80.9946 22.1055 80.9946C20.3223 80.9946 19.4271 80.0565 19.4199 78.1802ZM26.1338 81V75.3604H26.8052L26.9824 76.0801C27.5589 75.6003 28.1927 75.3604 28.8838 75.3604C30.291 75.3604 30.9946 76.0604 30.9946 77.4604V81H30.001V77.4443C30.001 76.6064 29.5838 76.1875 28.7495 76.1875C28.1802 76.1875 27.6395 76.4256 27.1274 76.9019V81H26.1338ZM32.6113 74.4473H33.2344L33.4492 75.3604H34.9746V76.166H33.605V79.4048C33.605 79.9312 33.8324 80.1943 34.2871 80.1943H34.9746V81H34.0293C33.084 81 32.6113 80.4933 32.6113 79.48V74.4473ZM38.5679 75.3604C40.172 75.3604 40.9741 76.1535 40.9741 77.7397C40.9741 77.9653 40.958 78.207 40.9258 78.4648H36.9673C36.9673 79.6178 37.6405 80.1943 38.9868 80.1943C39.6278 80.1943 40.1971 80.1227 40.6948 79.9795V80.7852C40.1971 80.9284 39.592 81 38.8794 81C36.9422 81 35.9736 80.0386 35.9736 78.1157C35.9736 76.2788 36.8384 75.3604 38.5679 75.3604ZM36.9673 77.6377H40.0181C39.9966 76.6494 39.5132 76.1553 38.5679 76.1553C37.5653 76.1553 37.0317 76.6494 36.9673 77.6377ZM42.2578 80.7314V79.8721C42.9202 80.0869 43.5898 80.1943 44.2666 80.1943C45.1654 80.1943 45.6147 79.9258 45.6147 79.3887C45.6147 78.8874 45.3014 78.6367 44.6748 78.6367H43.8691C42.6517 78.6367 42.043 78.0817 42.043 76.9717C42.043 75.8975 42.8254 75.3604 44.3901 75.3604C45.0633 75.3604 45.7311 75.4499 46.3936 75.6289V76.4883C45.7311 76.2734 45.0633 76.166 44.3901 76.166C43.452 76.166 42.9829 76.4346 42.9829 76.9717C42.9829 77.473 43.2783 77.7236 43.8691 77.7236H44.6748C45.9639 77.7236 46.6084 78.2786 46.6084 79.3887C46.6084 80.4629 45.8278 81 44.2666 81C43.5898 81 42.9202 80.9105 42.2578 80.7314ZM47.8975 80.7314V79.8721C48.5599 80.0869 49.2295 80.1943 49.9062 80.1943C50.805 80.1943 51.2544 79.9258 51.2544 79.3887C51.2544 78.8874 50.9411 78.6367 50.3145 78.6367H49.5088C48.2913 78.6367 47.6826 78.0817 47.6826 76.9717C47.6826 75.8975 48.465 75.3604 50.0298 75.3604C50.703 75.3604 51.3708 75.4499 52.0332 75.6289V76.4883C51.3708 76.2734 50.703 76.166 50.0298 76.166C49.0916 76.166 48.6226 76.4346 48.6226 76.9717C48.6226 77.473 48.918 77.7236 49.5088 77.7236H50.3145C51.6035 77.7236 52.248 78.2786 52.248 79.3887C52.248 80.4629 51.4674 81 49.9062 81C49.2295 81 48.5599 80.9105 47.8975 80.7314ZM54.3159 78.1587C54.3159 79.5158 54.8799 80.1943 56.0078 80.1943C57.1357 80.1943 57.6997 79.5158 57.6997 78.1587C57.6997 76.8302 57.1357 76.166 56.0078 76.166C54.8799 76.166 54.3159 76.8302 54.3159 78.1587ZM53.3223 78.1802C53.3223 76.3003 54.2174 75.3604 56.0078 75.3604C57.7982 75.3604 58.6934 76.3003 58.6934 78.1802C58.6934 80.0565 57.7982 80.9946 56.0078 80.9946C54.2246 80.9946 53.3294 80.0565 53.3223 78.1802ZM60.0361 81V75.3604H60.7075L60.8848 76.0801C61.3789 75.6003 61.9733 75.3604 62.668 75.3604V76.1875C61.9948 76.1875 61.4487 76.4256 61.0298 76.9019V81H60.0361ZM64.7681 75.3604V81H63.7744V75.3604H64.7681ZM64.7681 73.3193V74.2593H63.7744V73.3193H64.7681ZM68.9092 75.3872C68.9092 74.0086 69.8223 73.3193 71.6484 73.3193C72.3109 73.3193 72.9554 73.4089 73.582 73.5879V74.3936C72.9554 74.2145 72.3341 74.125 71.7183 74.125C70.508 74.125 69.9028 74.5368 69.9028 75.3604C69.9028 76.2555 70.3594 76.7031 71.2725 76.7031H73.3564V75.9404H73.6948L74.2427 76.7031H75.2202V77.5088H74.3501V78.3682C74.3501 80.1335 73.4227 81.0161 71.5679 81.0161C69.7954 81.0161 68.9092 80.3053 68.9092 78.8838C68.9092 77.9993 69.2547 77.4032 69.9458 77.0952C69.2547 76.7909 68.9092 76.2215 68.9092 75.3872ZM71.2832 77.5088C70.363 77.5088 69.9028 77.9582 69.9028 78.8569C69.9028 79.7485 70.4417 80.1943 71.5195 80.1943C72.7441 80.1943 73.3564 79.582 73.3564 78.3574V77.5088H71.2832ZM79.8179 75.3604V81H78.8242V75.3604H79.8179ZM79.8179 73.3193V74.2593H78.8242V73.3193H79.8179ZM81.542 81V75.3604H82.2134L82.3906 76.0801C82.9671 75.6003 83.6009 75.3604 84.292 75.3604C85.6992 75.3604 86.4028 76.0604 86.4028 77.4604V81H85.4092V77.4443C85.4092 76.6064 84.992 76.1875 84.1577 76.1875C83.5884 76.1875 83.0477 76.4256 82.5356 76.9019V81H81.542ZM88.0195 74.4473H88.6426L88.8574 75.3604H90.3828V76.166H89.0132V79.4048C89.0132 79.9312 89.2406 80.1943 89.6953 80.1943H90.3828V81H89.4375C88.4922 81 88.0195 80.4933 88.0195 79.48V74.4473ZM93.9761 75.3604C95.5802 75.3604 96.3823 76.1535 96.3823 77.7397C96.3823 77.9653 96.3662 78.207 96.334 78.4648H92.3755C92.3755 79.6178 93.0487 80.1943 94.395 80.1943C95.036 80.1943 95.6053 80.1227 96.103 79.9795V80.7852C95.6053 80.9284 95.0002 81 94.2876 81C92.3504 81 91.3818 80.0386 91.3818 78.1157C91.3818 76.2788 92.2466 75.3604 93.9761 75.3604ZM92.3755 77.6377H95.4263C95.4048 76.6494 94.9214 76.1553 93.9761 76.1553C92.9735 76.1553 92.4399 76.6494 92.3755 77.6377ZM98.7671 73.3193V81H97.7734V73.3193H98.7671ZM101.485 73.3193V81H100.491V73.3193H101.485ZM104.256 75.3604V81H103.263V75.3604H104.256ZM104.256 73.3193V74.2593H103.263V73.3193H104.256ZM109.751 76.3164C109.411 76.2305 108.99 76.1875 108.489 76.1875C107.289 76.1875 106.689 76.8374 106.689 78.1372C106.689 79.4728 107.257 80.1406 108.392 80.1406C108.908 80.1406 109.361 80.0439 109.751 79.8506V76.3164ZM110.745 81C110.745 82.3607 109.88 83.041 108.15 83.041C107.456 83.041 106.84 82.9515 106.303 82.7725V81.9668C106.851 82.1458 107.47 82.2354 108.161 82.2354C109.221 82.2354 109.751 81.8236 109.751 81V80.7314C109.328 80.9105 108.874 81 108.387 81C106.604 81 105.712 80.0493 105.712 78.1479C105.712 76.2896 106.652 75.3604 108.532 75.3604C109.294 75.3604 110.032 75.4373 110.745 75.5913V81ZM114.687 75.3604C116.291 75.3604 117.093 76.1535 117.093 77.7397C117.093 77.9653 117.077 78.207 117.045 78.4648H113.086C113.086 79.6178 113.76 80.1943 115.106 80.1943C115.747 80.1943 116.316 80.1227 116.814 79.9795V80.7852C116.316 80.9284 115.711 81 114.999 81C113.061 81 112.093 80.0386 112.093 78.1157C112.093 76.2788 112.958 75.3604 114.687 75.3604ZM113.086 77.6377H116.137C116.116 76.6494 115.632 76.1553 114.687 76.1553C113.684 76.1553 113.151 76.6494 113.086 77.6377ZM118.431 81V75.3604H119.102L119.279 76.0801C119.856 75.6003 120.49 75.3604 121.181 75.3604C122.588 75.3604 123.292 76.0604 123.292 77.4604V81H122.298V77.4443C122.298 76.6064 121.881 76.1875 121.046 76.1875C120.477 76.1875 119.936 76.4256 119.424 76.9019V81H118.431ZM129.151 80.8389C128.686 80.9463 128.185 81 127.647 81C125.642 81 124.64 80.0243 124.64 78.0728C124.64 76.2645 125.642 75.3604 127.647 75.3604C128.185 75.3604 128.686 75.4141 129.151 75.5215V76.3271C128.686 76.2197 128.167 76.166 127.594 76.166C126.287 76.166 125.633 76.8016 125.633 78.0728C125.633 79.4871 126.287 80.1943 127.594 80.1943C128.167 80.1943 128.686 80.1406 129.151 80.0332V80.8389ZM132.745 75.3604C134.349 75.3604 135.151 76.1535 135.151 77.7397C135.151 77.9653 135.135 78.207 135.103 78.4648H131.144C131.144 79.6178 131.817 80.1943 133.164 80.1943C133.805 80.1943 134.374 80.1227 134.872 79.9795V80.7852C134.374 80.9284 133.769 81 133.056 81C131.119 81 130.15 80.0386 130.15 78.1157C130.15 76.2788 131.015 75.3604 132.745 75.3604ZM131.144 77.6377H134.195C134.173 76.6494 133.69 76.1553 132.745 76.1553C131.742 76.1553 131.208 76.6494 131.144 77.6377ZM140.436 73.3193V81H139.442V73.3193H140.436ZM142.321 81V75.3604H142.993L143.17 76.0801C143.746 75.6003 144.38 75.3604 145.071 75.3604C146.479 75.3604 147.182 76.0604 147.182 77.4604V81H146.188V77.4443C146.188 76.6064 145.771 76.1875 144.937 76.1875C144.368 76.1875 143.827 76.4256 143.315 76.9019V81H142.321ZM148.799 74.4473H149.422L149.637 75.3604H151.162V76.166H149.792V79.4048C149.792 79.9312 150.02 80.1943 150.475 80.1943H151.162V81H150.217C149.271 81 148.799 80.4933 148.799 79.48V74.4473ZM154.755 75.3604C156.36 75.3604 157.162 76.1535 157.162 77.7397C157.162 77.9653 157.146 78.207 157.113 78.4648H153.155C153.155 79.6178 153.828 80.1943 155.174 80.1943C155.815 80.1943 156.385 80.1227 156.882 79.9795V80.7852C156.385 80.9284 155.779 81 155.067 81C153.13 81 152.161 80.0386 152.161 78.1157C152.161 76.2788 153.026 75.3604 154.755 75.3604ZM153.155 77.6377H156.206C156.184 76.6494 155.701 76.1553 154.755 76.1553C153.753 76.1553 153.219 76.6494 153.155 77.6377ZM159.546 73.3193V81H158.553V73.3193H159.546ZM162.264 73.3193V81H161.271V73.3193H162.264ZM165.036 75.3604V81H164.042V75.3604H165.036ZM165.036 73.3193V74.2593H164.042V73.3193H165.036ZM170.53 76.3164C170.19 76.2305 169.769 76.1875 169.268 76.1875C168.069 76.1875 167.469 76.8374 167.469 78.1372C167.469 79.4728 168.036 80.1406 169.171 80.1406C169.687 80.1406 170.14 80.0439 170.53 79.8506V76.3164ZM171.524 81C171.524 82.3607 170.659 83.041 168.93 83.041C168.235 83.041 167.619 82.9515 167.082 82.7725V81.9668C167.63 82.1458 168.249 82.2354 168.94 82.2354C170 82.2354 170.53 81.8236 170.53 81V80.7314C170.108 80.9105 169.653 81 169.166 81C167.383 81 166.491 80.0493 166.491 78.1479C166.491 76.2896 167.431 75.3604 169.311 75.3604C170.074 75.3604 170.811 75.4373 171.524 75.5913V81ZM175.466 75.3604C177.07 75.3604 177.873 76.1535 177.873 77.7397C177.873 77.9653 177.856 78.207 177.824 78.4648H173.866C173.866 79.6178 174.539 80.1943 175.885 80.1943C176.526 80.1943 177.096 80.1227 177.593 79.9795V80.7852C177.096 80.9284 176.49 81 175.778 81C173.841 81 172.872 80.0386 172.872 78.1157C172.872 76.2788 173.737 75.3604 175.466 75.3604ZM173.866 77.6377H176.917C176.895 76.6494 176.412 76.1553 175.466 76.1553C174.464 76.1553 173.93 76.6494 173.866 77.6377ZM179.21 81V75.3604H179.881L180.059 76.0801C180.635 75.6003 181.269 75.3604 181.96 75.3604C183.367 75.3604 184.071 76.0604 184.071 77.4604V81H183.077V77.4443C183.077 76.6064 182.66 76.1875 181.826 76.1875C181.256 76.1875 180.716 76.4256 180.204 76.9019V81H179.21ZM189.931 80.8389C189.465 80.9463 188.964 81 188.427 81C186.422 81 185.419 80.0243 185.419 78.0728C185.419 76.2645 186.422 75.3604 188.427 75.3604C188.964 75.3604 189.465 75.4141 189.931 75.5215V76.3271C189.465 76.2197 188.946 76.166 188.373 76.166C187.066 76.166 186.413 76.8016 186.413 78.0728C186.413 79.4871 187.066 80.1943 188.373 80.1943C188.946 80.1943 189.465 80.1406 189.931 80.0332V80.8389ZM193.524 75.3604C195.128 75.3604 195.93 76.1535 195.93 77.7397C195.93 77.9653 195.914 78.207 195.882 78.4648H191.923C191.923 79.6178 192.597 80.1943 193.943 80.1943C194.584 80.1943 195.153 80.1227 195.651 79.9795V80.7852C195.153 80.9284 194.548 81 193.835 81C191.898 81 190.93 80.0386 190.93 78.1157C190.93 76.2788 191.794 75.3604 193.524 75.3604ZM191.923 77.6377H194.974C194.953 76.6494 194.469 76.1553 193.524 76.1553C192.521 76.1553 191.988 76.6494 191.923 77.6377Z" fill="black"/>
</svg>
